# MagicaVoxel @ Ephtracy

# group
o 

# material
mtllib gasStation.mtl
usemtl palette

# normals
vn -1 0 0
vn 1 0 0
vn 0 0 1
vn 0 0 -1
vn 0 -1 0
vn 0 1 0

# texcoords
vt 0.970703 0.5
vt 0.974609 0.5
vt 0.978516 0.5
vt 0.986328 0.5
vt 0.990234 0.5

# verts
v 0.6 3.2 -0.4
v 0.6 3.2 -1.6
v 0.6 3.4 -0.4
v 0.6 3.4 -1.6
v 0.7 2.7 -0.6
v 0.7 2.7 -0.7
v 0.7 2.7 -0.8
v 0.7 2.7 -0.9
v 0.7 2.7 -1.1
v 0.7 2.7 -1.2
v 0.7 2.7 -1.3
v 0.7 2.7 -1.4
v 0.7 2.8 -0.8
v 0.7 2.8 -0.9
v 0.7 2.8 -1.1
v 0.7 2.8 -1.2
v 0.7 2.9 -0.8
v 0.7 2.9 -0.9
v 0.7 2.9 -1.1
v 0.7 2.9 -1.2
v 0.7 3.2 -0.6
v 0.7 3.2 -0.7
v 0.7 3.2 -1.3
v 0.7 3.2 -1.4
v 1.2 2.7 -0.6
v 1.2 2.7 -0.7
v 1.2 2.7 -0.8
v 1.2 2.7 -0.9
v 1.2 2.7 -1.1
v 1.2 2.7 -1.2
v 1.2 2.7 -1.3
v 1.2 2.7 -1.4
v 1.2 2.8 -0.8
v 1.2 2.8 -0.9
v 1.2 2.8 -1.1
v 1.2 2.8 -1.2
v 1.2 2.9 -0.8
v 1.2 2.9 -0.9
v 1.2 2.9 -1.1
v 1.2 2.9 -1.2
v 1.2 3.2 -0.6
v 1.2 3.2 -0.7
v 1.2 3.2 -1.3
v 1.2 3.2 -1.4
v 1.3 3.3 -0.5
v 1.3 3.3 -1.5
v 1.3 3.4 -0.5
v 1.3 3.4 -1.5
v 0.7 3.3 -0.5
v 0.7 3.3 -1.5
v 0.7 3.4 -0.5
v 0.7 3.4 -1.5
v 0.8 2.7 -0.6
v 0.8 2.7 -0.7
v 0.8 2.7 -0.8
v 0.8 2.7 -0.9
v 0.8 2.7 -1.1
v 0.8 2.7 -1.2
v 0.8 2.7 -1.3
v 0.8 2.7 -1.4
v 0.8 2.8 -0.8
v 0.8 2.8 -0.9
v 0.8 2.8 -1.1
v 0.8 2.8 -1.2
v 0.8 2.9 -0.8
v 0.8 2.9 -0.9
v 0.8 2.9 -1.1
v 0.8 2.9 -1.2
v 0.8 3.2 -0.6
v 0.8 3.2 -0.7
v 0.8 3.2 -1.3
v 0.8 3.2 -1.4
v 1.3 2.7 -0.6
v 1.3 2.7 -0.7
v 1.3 2.7 -0.8
v 1.3 2.7 -0.9
v 1.3 2.7 -1.1
v 1.3 2.7 -1.2
v 1.3 2.7 -1.3
v 1.3 2.7 -1.4
v 1.3 2.8 -0.8
v 1.3 2.8 -0.9
v 1.3 2.8 -1.1
v 1.3 2.8 -1.2
v 1.3 2.9 -0.8
v 1.3 2.9 -0.9
v 1.3 2.9 -1.1
v 1.3 2.9 -1.2
v 1.3 3.2 -0.6
v 1.3 3.2 -0.7
v 1.3 3.2 -1.3
v 1.3 3.2 -1.4
v 1.4 3.2 -0.4
v 1.4 3.2 -1.6
v 1.4 3.4 -0.4
v 1.4 3.4 -1.6
v 0.6 3.2 -0.4
v 0.6 3.4 -0.4
v 1.4 3.2 -0.4
v 1.4 3.4 -0.4
v 0.7 2.7 -0.6
v 0.7 3.2 -0.6
v 0.8 2.7 -0.6
v 0.8 3.2 -0.6
v 1.2 2.7 -0.6
v 1.2 3.2 -0.6
v 1.3 2.7 -0.6
v 1.3 3.2 -0.6
v 0.7 2.7 -0.8
v 0.7 2.8 -0.8
v 0.7 2.9 -0.8
v 0.8 2.7 -0.8
v 0.8 2.8 -0.8
v 0.8 2.9 -0.8
v 1.2 2.7 -0.8
v 1.2 2.8 -0.8
v 1.2 2.9 -0.8
v 1.3 2.7 -0.8
v 1.3 2.8 -0.8
v 1.3 2.9 -0.8
v 0.7 2.7 -1.1
v 0.7 2.8 -1.1
v 0.7 2.9 -1.1
v 0.8 2.7 -1.1
v 0.8 2.8 -1.1
v 0.8 2.9 -1.1
v 1.2 2.7 -1.1
v 1.2 2.8 -1.1
v 1.2 2.9 -1.1
v 1.3 2.7 -1.1
v 1.3 2.8 -1.1
v 1.3 2.9 -1.1
v 0.7 2.7 -1.3
v 0.7 3.2 -1.3
v 0.8 2.7 -1.3
v 0.8 3.2 -1.3
v 1.2 2.7 -1.3
v 1.2 3.2 -1.3
v 1.3 2.7 -1.3
v 1.3 3.2 -1.3
v 0.7 3.3 -1.5
v 0.7 3.4 -1.5
v 1.3 3.3 -1.5
v 1.3 3.4 -1.5
v 0.7 3.3 -0.5
v 0.7 3.4 -0.5
v 1.3 3.3 -0.5
v 1.3 3.4 -0.5
v 0.7 2.7 -0.7
v 0.7 3.2 -0.7
v 0.8 2.7 -0.7
v 0.8 3.2 -0.7
v 1.2 2.7 -0.7
v 1.2 3.2 -0.7
v 1.3 2.7 -0.7
v 1.3 3.2 -0.7
v 0.7 2.7 -0.9
v 0.7 2.8 -0.9
v 0.7 2.9 -0.9
v 0.8 2.7 -0.9
v 0.8 2.8 -0.9
v 0.8 2.9 -0.9
v 1.2 2.7 -0.9
v 1.2 2.8 -0.9
v 1.2 2.9 -0.9
v 1.3 2.7 -0.9
v 1.3 2.8 -0.9
v 1.3 2.9 -0.9
v 0.7 2.7 -1.2
v 0.7 2.8 -1.2
v 0.7 2.9 -1.2
v 0.8 2.7 -1.2
v 0.8 2.8 -1.2
v 0.8 2.9 -1.2
v 1.2 2.7 -1.2
v 1.2 2.8 -1.2
v 1.2 2.9 -1.2
v 1.3 2.7 -1.2
v 1.3 2.8 -1.2
v 1.3 2.9 -1.2
v 0.7 2.7 -1.4
v 0.7 3.2 -1.4
v 0.8 2.7 -1.4
v 0.8 3.2 -1.4
v 1.2 2.7 -1.4
v 1.2 3.2 -1.4
v 1.3 2.7 -1.4
v 1.3 3.2 -1.4
v 0.6 3.2 -1.6
v 0.6 3.4 -1.6
v 1.4 3.2 -1.6
v 1.4 3.4 -1.6
v 0.7 2.7 -0.6
v 0.8 2.7 -0.6
v 1.2 2.7 -0.6
v 1.3 2.7 -0.6
v 0.7 2.7 -0.7
v 0.8 2.7 -0.7
v 1.2 2.7 -0.7
v 1.3 2.7 -0.7
v 0.7 2.7 -0.8
v 0.8 2.7 -0.8
v 1.2 2.7 -0.8
v 1.3 2.7 -0.8
v 0.7 2.7 -0.9
v 0.8 2.7 -0.9
v 1.2 2.7 -0.9
v 1.3 2.7 -0.9
v 0.7 2.7 -1.1
v 0.8 2.7 -1.1
v 1.2 2.7 -1.1
v 1.3 2.7 -1.1
v 0.7 2.7 -1.2
v 0.8 2.7 -1.2
v 1.2 2.7 -1.2
v 1.3 2.7 -1.2
v 0.7 2.7 -1.3
v 0.8 2.7 -1.3
v 1.2 2.7 -1.3
v 1.3 2.7 -1.3
v 0.7 2.7 -1.4
v 0.8 2.7 -1.4
v 1.2 2.7 -1.4
v 1.3 2.7 -1.4
v 0.6 3.2 -0.4
v 1.4 3.2 -0.4
v 0.7 3.2 -0.5
v 1.3 3.2 -0.5
v 0.7 3.2 -0.6
v 0.8 3.2 -0.6
v 1.2 3.2 -0.6
v 1.3 3.2 -0.6
v 0.7 3.2 -0.7
v 0.8 3.2 -0.7
v 1.2 3.2 -0.7
v 1.3 3.2 -0.7
v 0.7 3.2 -1.3
v 0.8 3.2 -1.3
v 1.2 3.2 -1.3
v 1.3 3.2 -1.3
v 0.7 3.2 -1.4
v 0.8 3.2 -1.4
v 1.2 3.2 -1.4
v 1.3 3.2 -1.4
v 0.7 3.2 -1.5
v 1.3 3.2 -1.5
v 0.6 3.2 -1.6
v 1.4 3.2 -1.6
v 0.7 2.9 -0.8
v 0.8 2.9 -0.8
v 1.2 2.9 -0.8
v 1.3 2.9 -0.8
v 0.7 2.9 -0.9
v 0.8 2.9 -0.9
v 1.2 2.9 -0.9
v 1.3 2.9 -0.9
v 0.7 2.9 -1.1
v 0.8 2.9 -1.1
v 1.2 2.9 -1.1
v 1.3 2.9 -1.1
v 0.7 2.9 -1.2
v 0.8 2.9 -1.2
v 1.2 2.9 -1.2
v 1.3 2.9 -1.2
v 0.7 3.3 -0.5
v 1.3 3.3 -0.5
v 0.7 3.3 -1.5
v 1.3 3.3 -1.5
v 0.6 3.4 -0.4
v 1.4 3.4 -0.4
v 0.7 3.4 -0.5
v 1.3 3.4 -0.5
v 0.7 3.4 -1.5
v 1.3 3.4 -1.5
v 0.6 3.4 -1.6
v 1.4 3.4 -1.6

# faces
f 3/2/1 2/2/1 1/2/1
f 4/2/1 2/2/1 3/2/1
f 13/1/1 8/1/1 7/1/1
f 14/1/1 8/1/1 13/1/1
f 15/1/1 10/1/1 9/1/1
f 16/1/1 10/1/1 15/1/1
f 17/3/1 14/3/1 13/3/1
f 18/3/1 14/3/1 17/3/1
f 19/3/1 16/3/1 15/3/1
f 20/3/1 16/3/1 19/3/1
f 21/5/1 6/5/1 5/5/1
f 22/5/1 6/5/1 21/5/1
f 23/5/1 12/5/1 11/5/1
f 24/5/1 12/5/1 23/5/1
f 33/1/1 28/1/1 27/1/1
f 34/1/1 28/1/1 33/1/1
f 35/1/1 30/1/1 29/1/1
f 36/1/1 30/1/1 35/1/1
f 37/3/1 34/3/1 33/3/1
f 38/3/1 34/3/1 37/3/1
f 39/3/1 36/3/1 35/3/1
f 40/3/1 36/3/1 39/3/1
f 41/5/1 26/5/1 25/5/1
f 42/5/1 26/5/1 41/5/1
f 43/5/1 32/5/1 31/5/1
f 44/5/1 32/5/1 43/5/1
f 47/2/1 46/2/1 45/2/1
f 48/2/1 46/2/1 47/2/1
f 49/2/2 50/2/2 51/2/2
f 51/2/2 50/2/2 52/2/2
f 55/1/2 56/1/2 61/1/2
f 61/1/2 56/1/2 62/1/2
f 57/1/2 58/1/2 63/1/2
f 63/1/2 58/1/2 64/1/2
f 61/3/2 62/3/2 65/3/2
f 65/3/2 62/3/2 66/3/2
f 63/3/2 64/3/2 67/3/2
f 67/3/2 64/3/2 68/3/2
f 53/5/2 54/5/2 69/5/2
f 69/5/2 54/5/2 70/5/2
f 59/5/2 60/5/2 71/5/2
f 71/5/2 60/5/2 72/5/2
f 75/1/2 76/1/2 81/1/2
f 81/1/2 76/1/2 82/1/2
f 77/1/2 78/1/2 83/1/2
f 83/1/2 78/1/2 84/1/2
f 81/3/2 82/3/2 85/3/2
f 85/3/2 82/3/2 86/3/2
f 83/3/2 84/3/2 87/3/2
f 87/3/2 84/3/2 88/3/2
f 73/5/2 74/5/2 89/5/2
f 89/5/2 74/5/2 90/5/2
f 79/5/2 80/5/2 91/5/2
f 91/5/2 80/5/2 92/5/2
f 93/2/2 94/2/2 95/2/2
f 95/2/2 94/2/2 96/2/2
f 99/2/3 98/2/3 97/2/3
f 100/2/3 98/2/3 99/2/3
f 103/5/3 102/5/3 101/5/3
f 104/5/3 102/5/3 103/5/3
f 107/5/3 106/5/3 105/5/3
f 108/5/3 106/5/3 107/5/3
f 112/1/3 110/1/3 109/1/3
f 113/3/3 111/3/3 110/3/3
f 113/1/3 110/1/3 112/1/3
f 114/3/3 111/3/3 113/3/3
f 118/1/3 116/1/3 115/1/3
f 119/3/3 117/3/3 116/3/3
f 119/1/3 116/1/3 118/1/3
f 120/3/3 117/3/3 119/3/3
f 124/1/3 122/1/3 121/1/3
f 125/3/3 123/3/3 122/3/3
f 125/1/3 122/1/3 124/1/3
f 126/3/3 123/3/3 125/3/3
f 130/1/3 128/1/3 127/1/3
f 131/3/3 129/3/3 128/3/3
f 131/1/3 128/1/3 130/1/3
f 132/3/3 129/3/3 131/3/3
f 135/5/3 134/5/3 133/5/3
f 136/5/3 134/5/3 135/5/3
f 139/5/3 138/5/3 137/5/3
f 140/5/3 138/5/3 139/5/3
f 143/2/3 142/2/3 141/2/3
f 144/2/3 142/2/3 143/2/3
f 145/2/4 146/2/4 147/2/4
f 147/2/4 146/2/4 148/2/4
f 149/5/4 150/5/4 151/5/4
f 151/5/4 150/5/4 152/5/4
f 153/5/4 154/5/4 155/5/4
f 155/5/4 154/5/4 156/5/4
f 157/1/4 158/1/4 160/1/4
f 158/3/4 159/3/4 161/3/4
f 160/1/4 158/1/4 161/1/4
f 161/3/4 159/3/4 162/3/4
f 163/1/4 164/1/4 166/1/4
f 164/3/4 165/3/4 167/3/4
f 166/1/4 164/1/4 167/1/4
f 167/3/4 165/3/4 168/3/4
f 169/1/4 170/1/4 172/1/4
f 170/3/4 171/3/4 173/3/4
f 172/1/4 170/1/4 173/1/4
f 173/3/4 171/3/4 174/3/4
f 175/1/4 176/1/4 178/1/4
f 176/3/4 177/3/4 179/3/4
f 178/1/4 176/1/4 179/1/4
f 179/3/4 177/3/4 180/3/4
f 181/5/4 182/5/4 183/5/4
f 183/5/4 182/5/4 184/5/4
f 185/5/4 186/5/4 187/5/4
f 187/5/4 186/5/4 188/5/4
f 189/2/4 190/2/4 191/2/4
f 191/2/4 190/2/4 192/2/4
f 197/5/5 194/5/5 193/5/5
f 198/5/5 194/5/5 197/5/5
f 199/5/5 196/5/5 195/5/5
f 200/5/5 196/5/5 199/5/5
f 205/1/5 202/1/5 201/1/5
f 206/1/5 202/1/5 205/1/5
f 207/1/5 204/1/5 203/1/5
f 208/1/5 204/1/5 207/1/5
f 213/1/5 210/1/5 209/1/5
f 214/1/5 210/1/5 213/1/5
f 215/1/5 212/1/5 211/1/5
f 216/1/5 212/1/5 215/1/5
f 221/5/5 218/5/5 217/5/5
f 222/5/5 218/5/5 221/5/5
f 223/5/5 220/5/5 219/5/5
f 224/5/5 220/5/5 223/5/5
f 227/2/5 226/2/5 225/2/5
f 228/2/5 226/2/5 227/2/5
f 229/2/5 227/2/5 225/2/5
f 229/4/5 228/4/5 227/4/5
f 230/4/5 228/4/5 229/4/5
f 231/4/5 228/4/5 230/4/5
f 232/2/5 226/2/5 228/2/5
f 232/4/5 228/4/5 231/4/5
f 233/2/5 229/2/5 225/2/5
f 234/4/5 231/4/5 230/4/5
f 235/4/5 231/4/5 234/4/5
f 236/2/5 226/2/5 232/2/5
f 237/2/5 233/2/5 225/2/5
f 237/4/5 236/4/5 235/4/5
f 237/4/5 235/4/5 234/4/5
f 237/4/5 234/4/5 233/4/5
f 238/4/5 236/4/5 237/4/5
f 239/4/5 236/4/5 238/4/5
f 240/2/5 226/2/5 236/2/5
f 240/4/5 236/4/5 239/4/5
f 241/2/5 237/2/5 225/2/5
f 242/4/5 239/4/5 238/4/5
f 243/4/5 239/4/5 242/4/5
f 244/2/5 226/2/5 240/2/5
f 245/2/5 241/2/5 225/2/5
f 245/4/5 244/4/5 243/4/5
f 245/4/5 243/4/5 242/4/5
f 245/4/5 242/4/5 241/4/5
f 246/2/5 226/2/5 244/2/5
f 246/4/5 244/4/5 245/4/5
f 247/2/5 245/2/5 225/2/5
f 247/2/5 246/2/5 245/2/5
f 248/2/5 226/2/5 246/2/5
f 248/2/5 246/2/5 247/2/5
f 249/3/6 250/3/6 253/3/6
f 253/3/6 250/3/6 254/3/6
f 251/3/6 252/3/6 255/3/6
f 255/3/6 252/3/6 256/3/6
f 257/3/6 258/3/6 261/3/6
f 261/3/6 258/3/6 262/3/6
f 259/3/6 260/3/6 263/3/6
f 263/3/6 260/3/6 264/3/6
f 265/4/6 266/4/6 267/4/6
f 267/4/6 266/4/6 268/4/6
f 269/2/6 270/2/6 271/2/6
f 271/2/6 270/2/6 272/2/6
f 269/2/6 271/2/6 273/2/6
f 272/2/6 270/2/6 274/2/6
f 269/2/6 273/2/6 275/2/6
f 273/2/6 274/2/6 275/2/6
f 274/2/6 270/2/6 276/2/6
f 275/2/6 274/2/6 276/2/6
