# MagicaVoxel @ Ephtracy

# group
o 

# material
mtllib house.mtl
usemtl palette

# normals
vn -1 0 0
vn 1 0 0
vn 0 0 1
vn 0 0 -1
vn 0 -1 0
vn 0 1 0

# texcoords
vt 0.970703 0.5
vt 0.974609 0.5
vt 0.978516 0.5
vt 0.982422 0.5

# verts
v 0 2.8 0
v 0 2.8 -0.1
v 0 2.8 -0.8
v 0 2.8 -0.9
v 0 2.9 0
v 0 2.9 -0.1
v 0 2.9 -0.2
v 0 2.9 -0.7
v 0 2.9 -0.8
v 0 2.9 -0.9
v 0 3 -0.1
v 0 3 -0.2
v 0 3 -0.3
v 0 3 -0.6
v 0 3 -0.7
v 0 3 -0.8
v 0 3.1 -0.2
v 0 3.1 -0.3
v 0 3.1 -0.4
v 0 3.1 -0.5
v 0 3.1 -0.6
v 0 3.1 -0.7
v 0 3.2 -0.3
v 0 3.2 -0.4
v 0 3.2 -0.5
v 0 3.2 -0.6
v 0 3.3 -0.4
v 0 3.3 -0.5
v 0.1 2.5 -0.1
v 0.1 2.5 -0.8
v 0.1 2.8 -0.1
v 0.1 2.8 -0.8
v 0.1 2.9 -0.1
v 0.1 2.9 -0.2
v 0.1 2.9 -0.7
v 0.1 2.9 -0.8
v 0.1 3 -0.2
v 0.1 3 -0.3
v 0.1 3 -0.6
v 0.1 3 -0.7
v 0.1 3.1 -0.3
v 0.1 3.1 -0.4
v 0.1 3.1 -0.5
v 0.1 3.1 -0.6
v 0.1 3.2 -0.4
v 0.1 3.2 -0.5
v 1 2.6 -0.2
v 1 2.6 -0.3
v 1 2.6 -0.4
v 1 2.6 -0.5
v 1 2.6 -0.6
v 1 2.6 -0.7
v 1 2.7 -0.2
v 1 2.7 -0.3
v 1 2.7 -0.4
v 1 2.7 -0.5
v 1 2.7 -0.6
v 1 2.7 -0.7
v 1 2.9 -0.2
v 1 2.9 -0.4
v 1 2.9 -0.5
v 1 2.9 -0.7
v 1 3 -0.2
v 1 3 -0.3
v 1 3 -0.4
v 1 3 -0.5
v 1 3 -0.6
v 1 3 -0.7
v 1 3.1 -0.3
v 1 3.1 -0.4
v 1 3.1 -0.5
v 1 3.1 -0.6
v 1 3.2 -0.4
v 1 3.2 -0.5
v 0.2 2.6 -0.2
v 0.2 2.6 -0.7
v 0.2 2.7 -0.2
v 0.2 2.7 -0.7
v 0.2 2.9 -0.2
v 0.2 2.9 -0.7
v 0.2 3 -0.2
v 0.2 3 -0.3
v 0.2 3 -0.6
v 0.2 3 -0.7
v 0.2 3.1 -0.3
v 0.2 3.1 -0.4
v 0.2 3.1 -0.5
v 0.2 3.1 -0.6
v 0.2 3.2 -0.4
v 0.2 3.2 -0.5
v 1.1 2.5 -0.1
v 1.1 2.5 -0.4
v 1.1 2.5 -0.5
v 1.1 2.5 -0.8
v 1.1 2.6 -0.2
v 1.1 2.6 -0.3
v 1.1 2.6 -0.6
v 1.1 2.6 -0.7
v 1.1 2.7 -0.2
v 1.1 2.7 -0.3
v 1.1 2.7 -0.4
v 1.1 2.7 -0.5
v 1.1 2.7 -0.6
v 1.1 2.7 -0.7
v 1.1 2.8 -0.1
v 1.1 2.8 -0.8
v 1.1 2.9 -0.1
v 1.1 2.9 -0.2
v 1.1 2.9 -0.4
v 1.1 2.9 -0.5
v 1.1 2.9 -0.7
v 1.1 2.9 -0.8
v 1.1 3 -0.2
v 1.1 3 -0.3
v 1.1 3 -0.4
v 1.1 3 -0.5
v 1.1 3 -0.6
v 1.1 3 -0.7
v 1.1 3.1 -0.3
v 1.1 3.1 -0.4
v 1.1 3.1 -0.5
v 1.1 3.1 -0.6
v 1.1 3.2 -0.4
v 1.1 3.2 -0.5
v 1.2 2.8 0
v 1.2 2.8 -0.1
v 1.2 2.8 -0.8
v 1.2 2.8 -0.9
v 1.2 2.9 0
v 1.2 2.9 -0.1
v 1.2 2.9 -0.2
v 1.2 2.9 -0.7
v 1.2 2.9 -0.8
v 1.2 2.9 -0.9
v 1.2 3 -0.1
v 1.2 3 -0.2
v 1.2 3 -0.3
v 1.2 3 -0.6
v 1.2 3 -0.7
v 1.2 3 -0.8
v 1.2 3.1 -0.2
v 1.2 3.1 -0.3
v 1.2 3.1 -0.4
v 1.2 3.1 -0.5
v 1.2 3.1 -0.6
v 1.2 3.1 -0.7
v 1.2 3.2 -0.3
v 1.2 3.2 -0.4
v 1.2 3.2 -0.5
v 1.2 3.2 -0.6
v 1.2 3.3 -0.4
v 1.2 3.3 -0.5
v 0 2.8 0
v 0 2.9 0
v 1.2 2.8 0
v 1.2 2.9 0
v 0 2.9 -0.1
v 0 3 -0.1
v 0.1 2.5 -0.1
v 0.1 2.8 -0.1
v 0.2 2.6 -0.1
v 0.2 2.7 -0.1
v 0.3 2.6 -0.1
v 0.3 2.7 -0.1
v 0.4 2.6 -0.1
v 0.4 2.7 -0.1
v 0.5 2.6 -0.1
v 0.5 2.7 -0.1
v 0.7 2.6 -0.1
v 0.7 2.7 -0.1
v 0.8 2.6 -0.1
v 0.8 2.7 -0.1
v 0.9 2.6 -0.1
v 0.9 2.7 -0.1
v 1 2.6 -0.1
v 1 2.7 -0.1
v 1.1 2.5 -0.1
v 1.1 2.8 -0.1
v 1.2 2.9 -0.1
v 1.2 3 -0.1
v 0 3 -0.2
v 0 3.1 -0.2
v 1.2 3 -0.2
v 1.2 3.1 -0.2
v 0 3.1 -0.3
v 0 3.2 -0.3
v 1.2 3.1 -0.3
v 1.2 3.2 -0.3
v 0 3.2 -0.4
v 0 3.3 -0.4
v 1.2 3.2 -0.4
v 1.2 3.3 -0.4
v 0 3.1 -0.5
v 0 3.2 -0.5
v 0.1 3.1 -0.5
v 0.1 3.2 -0.5
v 0.2 3.1 -0.5
v 0.2 3.2 -0.5
v 1 3.1 -0.5
v 1 3.2 -0.5
v 1.1 3.1 -0.5
v 1.1 3.2 -0.5
v 1.2 3.1 -0.5
v 1.2 3.2 -0.5
v 0 3 -0.6
v 0 3.1 -0.6
v 0.1 3 -0.6
v 0.1 3.1 -0.6
v 0.2 3 -0.6
v 0.2 3.1 -0.6
v 1 3 -0.6
v 1 3.1 -0.6
v 1.1 3 -0.6
v 1.1 3.1 -0.6
v 1.2 3 -0.6
v 1.2 3.1 -0.6
v 0 2.9 -0.7
v 0 3 -0.7
v 0.1 2.9 -0.7
v 0.1 3 -0.7
v 0.2 2.6 -0.7
v 0.2 2.7 -0.7
v 0.2 2.9 -0.7
v 0.2 3 -0.7
v 0.3 2.6 -0.7
v 0.3 2.7 -0.7
v 0.4 2.6 -0.7
v 0.4 2.7 -0.7
v 0.5 2.6 -0.7
v 0.5 2.7 -0.7
v 0.7 2.6 -0.7
v 0.7 2.7 -0.7
v 0.8 2.6 -0.7
v 0.8 2.7 -0.7
v 0.9 2.6 -0.7
v 0.9 2.7 -0.7
v 1 2.6 -0.7
v 1 2.7 -0.7
v 1 2.9 -0.7
v 1 3 -0.7
v 1.1 2.9 -0.7
v 1.1 3 -0.7
v 1.2 2.9 -0.7
v 1.2 3 -0.7
v 0 2.8 -0.8
v 0 2.9 -0.8
v 0.1 2.8 -0.8
v 0.1 2.9 -0.8
v 1.1 2.8 -0.8
v 1.1 2.9 -0.8
v 1.2 2.8 -0.8
v 1.2 2.9 -0.8
v 0 2.8 -0.1
v 0 2.9 -0.1
v 0.1 2.8 -0.1
v 0.1 2.9 -0.1
v 1.1 2.8 -0.1
v 1.1 2.9 -0.1
v 1.2 2.8 -0.1
v 1.2 2.9 -0.1
v 0 2.9 -0.2
v 0 3 -0.2
v 0.1 2.9 -0.2
v 0.1 3 -0.2
v 0.2 2.6 -0.2
v 0.2 2.7 -0.2
v 0.2 2.9 -0.2
v 0.2 3 -0.2
v 0.3 2.6 -0.2
v 0.3 2.7 -0.2
v 0.4 2.6 -0.2
v 0.4 2.7 -0.2
v 0.5 2.6 -0.2
v 0.5 2.7 -0.2
v 0.7 2.6 -0.2
v 0.7 2.7 -0.2
v 0.8 2.6 -0.2
v 0.8 2.7 -0.2
v 0.9 2.6 -0.2
v 0.9 2.7 -0.2
v 1 2.6 -0.2
v 1 2.7 -0.2
v 1 2.9 -0.2
v 1 3 -0.2
v 1.1 2.9 -0.2
v 1.1 3 -0.2
v 1.2 2.9 -0.2
v 1.2 3 -0.2
v 0 3 -0.3
v 0 3.1 -0.3
v 0.1 3 -0.3
v 0.1 3.1 -0.3
v 0.2 3 -0.3
v 0.2 3.1 -0.3
v 1 3 -0.3
v 1 3.1 -0.3
v 1.1 3 -0.3
v 1.1 3.1 -0.3
v 1.2 3 -0.3
v 1.2 3.1 -0.3
v 0 3.1 -0.4
v 0 3.2 -0.4
v 0.1 3.1 -0.4
v 0.1 3.2 -0.4
v 0.2 3.1 -0.4
v 0.2 3.2 -0.4
v 1 3.1 -0.4
v 1 3.2 -0.4
v 1.1 3.1 -0.4
v 1.1 3.2 -0.4
v 1.2 3.1 -0.4
v 1.2 3.2 -0.4
v 0 3.2 -0.5
v 0 3.3 -0.5
v 1.2 3.2 -0.5
v 1.2 3.3 -0.5
v 0 3.1 -0.6
v 0 3.2 -0.6
v 1.2 3.1 -0.6
v 1.2 3.2 -0.6
v 0 3 -0.7
v 0 3.1 -0.7
v 1.2 3 -0.7
v 1.2 3.1 -0.7
v 0 2.9 -0.8
v 0 3 -0.8
v 0.1 2.5 -0.8
v 0.1 2.8 -0.8
v 0.2 2.6 -0.8
v 0.2 2.7 -0.8
v 0.3 2.6 -0.8
v 0.3 2.7 -0.8
v 0.4 2.6 -0.8
v 0.4 2.7 -0.8
v 0.5 2.6 -0.8
v 0.5 2.7 -0.8
v 0.7 2.6 -0.8
v 0.7 2.7 -0.8
v 0.8 2.6 -0.8
v 0.8 2.7 -0.8
v 0.9 2.6 -0.8
v 0.9 2.7 -0.8
v 1 2.6 -0.8
v 1 2.7 -0.8
v 1.1 2.5 -0.8
v 1.1 2.8 -0.8
v 1.2 2.9 -0.8
v 1.2 3 -0.8
v 0 2.8 -0.9
v 0 2.9 -0.9
v 1.2 2.8 -0.9
v 1.2 2.9 -0.9
v 0.1 2.5 -0.1
v 1.1 2.5 -0.1
v 1 2.5 -0.4
v 1.1 2.5 -0.4
v 1 2.5 -0.5
v 1.1 2.5 -0.5
v 0.1 2.5 -0.8
v 1.1 2.5 -0.8
v 0 2.8 0
v 1.2 2.8 0
v 0 2.8 -0.1
v 0.1 2.8 -0.1
v 1.1 2.8 -0.1
v 1.2 2.8 -0.1
v 0 2.8 -0.8
v 0.1 2.8 -0.8
v 1.1 2.8 -0.8
v 1.2 2.8 -0.8
v 0 2.8 -0.9
v 1.2 2.8 -0.9
v 0 2.9 -0.1
v 0.1 2.9 -0.1
v 1.1 2.9 -0.1
v 1.2 2.9 -0.1
v 0 2.9 -0.2
v 0.1 2.9 -0.2
v 1.1 2.9 -0.2
v 1.2 2.9 -0.2
v 0 2.9 -0.7
v 0.1 2.9 -0.7
v 1.1 2.9 -0.7
v 1.2 2.9 -0.7
v 0 2.9 -0.8
v 0.1 2.9 -0.8
v 1.1 2.9 -0.8
v 1.2 2.9 -0.8
v 0 3 -0.2
v 0.1 3 -0.2
v 0.2 3 -0.2
v 1 3 -0.2
v 1.1 3 -0.2
v 1.2 3 -0.2
v 0 3 -0.3
v 0.1 3 -0.3
v 0.2 3 -0.3
v 1 3 -0.3
v 1.1 3 -0.3
v 1.2 3 -0.3
v 0 3 -0.6
v 0.1 3 -0.6
v 0.2 3 -0.6
v 1 3 -0.6
v 1.1 3 -0.6
v 1.2 3 -0.6
v 0 3 -0.7
v 0.1 3 -0.7
v 0.2 3 -0.7
v 1 3 -0.7
v 1.1 3 -0.7
v 1.2 3 -0.7
v 0 3.1 -0.3
v 0.1 3.1 -0.3
v 0.2 3.1 -0.3
v 1 3.1 -0.3
v 1.1 3.1 -0.3
v 1.2 3.1 -0.3
v 0 3.1 -0.4
v 0.1 3.1 -0.4
v 0.2 3.1 -0.4
v 1 3.1 -0.4
v 1.1 3.1 -0.4
v 1.2 3.1 -0.4
v 0 3.1 -0.5
v 0.1 3.1 -0.5
v 0.2 3.1 -0.5
v 1 3.1 -0.5
v 1.1 3.1 -0.5
v 1.2 3.1 -0.5
v 0 3.1 -0.6
v 0.1 3.1 -0.6
v 0.2 3.1 -0.6
v 1 3.1 -0.6
v 1.1 3.1 -0.6
v 1.2 3.1 -0.6
v 0 3.2 -0.4
v 0.1 3.2 -0.4
v 0.2 3.2 -0.4
v 1 3.2 -0.4
v 1.1 3.2 -0.4
v 1.2 3.2 -0.4
v 0 3.2 -0.5
v 0.1 3.2 -0.5
v 0.2 3.2 -0.5
v 1 3.2 -0.5
v 1.1 3.2 -0.5
v 1.2 3.2 -0.5
v 0.2 2.6 -0.2
v 0.3 2.6 -0.2
v 0.4 2.6 -0.2
v 0.5 2.6 -0.2
v 0.7 2.6 -0.2
v 0.8 2.6 -0.2
v 0.9 2.6 -0.2
v 1 2.6 -0.2
v 1 2.6 -0.3
v 1 2.6 -0.4
v 1 2.6 -0.5
v 1 2.6 -0.6
v 0.2 2.6 -0.7
v 0.3 2.6 -0.7
v 0.4 2.6 -0.7
v 0.5 2.6 -0.7
v 0.7 2.6 -0.7
v 0.8 2.6 -0.7
v 0.9 2.6 -0.7
v 1 2.6 -0.7
v 0 2.9 0
v 1.2 2.9 0
v 0 2.9 -0.1
v 1.2 2.9 -0.1
v 0 2.9 -0.8
v 1.2 2.9 -0.8
v 0 2.9 -0.9
v 1.2 2.9 -0.9
v 0 3 -0.1
v 1.2 3 -0.1
v 0 3 -0.2
v 1.2 3 -0.2
v 0 3 -0.7
v 1.2 3 -0.7
v 0 3 -0.8
v 1.2 3 -0.8
v 0 3.1 -0.2
v 1.2 3.1 -0.2
v 0 3.1 -0.3
v 1.2 3.1 -0.3
v 0 3.1 -0.6
v 1.2 3.1 -0.6
v 0 3.1 -0.7
v 1.2 3.1 -0.7
v 0 3.2 -0.3
v 1.2 3.2 -0.3
v 0 3.2 -0.4
v 1.2 3.2 -0.4
v 0 3.2 -0.5
v 1.2 3.2 -0.5
v 0 3.2 -0.6
v 1.2 3.2 -0.6
v 0 3.3 -0.4
v 1.2 3.3 -0.4
v 0 3.3 -0.5
v 1.2 3.3 -0.5

# faces
f 5/2/1 2/2/1 1/2/1
f 6/2/1 2/2/1 5/2/1
f 9/2/1 4/2/1 3/2/1
f 10/2/1 4/2/1 9/2/1
f 11/2/1 7/2/1 6/2/1
f 12/2/1 7/2/1 11/2/1
f 15/2/1 9/2/1 8/2/1
f 16/2/1 9/2/1 15/2/1
f 17/2/1 13/2/1 12/2/1
f 18/2/1 13/2/1 17/2/1
f 21/2/1 15/2/1 14/2/1
f 22/2/1 15/2/1 21/2/1
f 23/2/1 19/2/1 18/2/1
f 24/2/1 19/2/1 23/2/1
f 25/2/1 21/2/1 20/2/1
f 26/2/1 21/2/1 25/2/1
f 27/2/1 25/2/1 24/2/1
f 28/2/1 25/2/1 27/2/1
f 31/1/1 30/1/1 29/1/1
f 32/1/1 30/1/1 31/1/1
f 33/1/1 32/1/1 31/1/1
f 34/1/1 32/1/1 33/1/1
f 35/1/1 32/1/1 34/1/1
f 36/1/1 32/1/1 35/1/1
f 37/1/1 35/1/1 34/1/1
f 38/1/1 35/1/1 37/1/1
f 39/1/1 35/1/1 38/1/1
f 40/1/1 35/1/1 39/1/1
f 41/1/1 39/1/1 38/1/1
f 42/1/1 39/1/1 41/1/1
f 43/1/1 39/1/1 42/1/1
f 44/1/1 39/1/1 43/1/1
f 45/1/1 43/1/1 42/1/1
f 46/1/1 43/1/1 45/1/1
f 53/3/1 48/3/1 47/3/1
f 54/1/1 49/1/1 48/1/1
f 54/3/1 48/3/1 53/3/1
f 55/4/1 50/4/1 49/4/1
f 55/1/1 49/1/1 54/1/1
f 56/1/1 51/1/1 50/1/1
f 56/4/1 50/4/1 55/4/1
f 57/3/1 52/3/1 51/3/1
f 57/1/1 51/1/1 56/1/1
f 58/3/1 52/3/1 57/3/1
f 59/1/1 56/1/1 55/1/1
f 59/1/1 54/1/1 53/1/1
f 59/1/1 58/1/1 57/1/1
f 59/1/1 57/1/1 56/1/1
f 59/1/1 55/1/1 54/1/1
f 60/1/1 58/1/1 59/1/1
f 61/1/1 58/1/1 60/1/1
f 62/1/1 58/1/1 61/1/1
f 63/1/1 60/1/1 59/1/1
f 64/1/1 60/1/1 63/1/1
f 65/3/1 61/3/1 60/3/1
f 65/1/1 60/1/1 64/1/1
f 66/1/1 62/1/1 61/1/1
f 66/3/1 61/3/1 65/3/1
f 67/1/1 62/1/1 66/1/1
f 68/1/1 62/1/1 67/1/1
f 69/1/1 65/1/1 64/1/1
f 69/1/1 67/1/1 66/1/1
f 69/1/1 66/1/1 65/1/1
f 70/1/1 67/1/1 69/1/1
f 71/1/1 67/1/1 70/1/1
f 72/1/1 67/1/1 71/1/1
f 73/1/1 71/1/1 70/1/1
f 74/1/1 71/1/1 73/1/1
f 75/1/2 76/1/2 77/1/2
f 77/1/2 76/1/2 78/1/2
f 77/1/2 78/1/2 79/1/2
f 79/1/2 78/1/2 80/1/2
f 79/1/2 80/1/2 81/1/2
f 81/1/2 80/1/2 82/1/2
f 82/1/2 80/1/2 83/1/2
f 83/1/2 80/1/2 84/1/2
f 82/1/2 83/1/2 85/1/2
f 85/1/2 83/1/2 86/1/2
f 86/1/2 83/1/2 87/1/2
f 87/1/2 83/1/2 88/1/2
f 86/1/2 87/1/2 89/1/2
f 89/1/2 87/1/2 90/1/2
f 91/1/2 92/1/2 95/1/2
f 95/1/2 92/1/2 96/1/2
f 93/1/2 94/1/2 97/1/2
f 97/1/2 94/1/2 98/1/2
f 91/1/2 95/1/2 99/1/2
f 95/3/2 96/3/2 99/3/2
f 96/1/2 92/1/2 100/1/2
f 99/3/2 96/3/2 100/3/2
f 92/4/2 93/4/2 101/4/2
f 100/1/2 92/1/2 101/1/2
f 93/1/2 97/1/2 102/1/2
f 101/4/2 93/4/2 102/4/2
f 97/3/2 98/3/2 103/3/2
f 102/1/2 97/1/2 103/1/2
f 98/1/2 94/1/2 104/1/2
f 103/3/2 98/3/2 104/3/2
f 91/1/2 99/1/2 105/1/2
f 99/1/2 100/1/2 105/1/2
f 103/1/2 104/1/2 105/1/2
f 100/1/2 101/1/2 105/1/2
f 101/1/2 102/1/2 105/1/2
f 102/1/2 103/1/2 105/1/2
f 104/1/2 94/1/2 106/1/2
f 105/1/2 104/1/2 106/1/2
f 105/1/2 106/1/2 107/1/2
f 107/1/2 106/1/2 108/1/2
f 108/1/2 106/1/2 109/1/2
f 109/1/2 106/1/2 110/1/2
f 110/1/2 106/1/2 111/1/2
f 111/1/2 106/1/2 112/1/2
f 108/1/2 109/1/2 113/1/2
f 113/1/2 109/1/2 114/1/2
f 109/3/2 110/3/2 115/3/2
f 114/1/2 109/1/2 115/1/2
f 110/1/2 111/1/2 116/1/2
f 115/3/2 110/3/2 116/3/2
f 116/1/2 111/1/2 117/1/2
f 117/1/2 111/1/2 118/1/2
f 114/1/2 115/1/2 119/1/2
f 116/1/2 117/1/2 119/1/2
f 115/1/2 116/1/2 119/1/2
f 119/1/2 117/1/2 120/1/2
f 120/1/2 117/1/2 121/1/2
f 121/1/2 117/1/2 122/1/2
f 120/1/2 121/1/2 123/1/2
f 123/1/2 121/1/2 124/1/2
f 125/2/2 126/2/2 129/2/2
f 129/2/2 126/2/2 130/2/2
f 127/2/2 128/2/2 133/2/2
f 133/2/2 128/2/2 134/2/2
f 130/2/2 131/2/2 135/2/2
f 135/2/2 131/2/2 136/2/2
f 132/2/2 133/2/2 139/2/2
f 139/2/2 133/2/2 140/2/2
f 136/2/2 137/2/2 141/2/2
f 141/2/2 137/2/2 142/2/2
f 138/2/2 139/2/2 145/2/2
f 145/2/2 139/2/2 146/2/2
f 142/2/2 143/2/2 147/2/2
f 147/2/2 143/2/2 148/2/2
f 144/2/2 145/2/2 149/2/2
f 149/2/2 145/2/2 150/2/2
f 148/2/2 149/2/2 151/2/2
f 151/2/2 149/2/2 152/2/2
f 155/2/3 154/2/3 153/2/3
f 156/2/3 154/2/3 155/2/3
f 161/1/3 160/1/3 159/1/3
f 162/1/3 160/1/3 161/1/3
f 163/1/3 161/1/3 159/1/3
f 163/3/3 162/3/3 161/3/3
f 164/1/3 160/1/3 162/1/3
f 164/3/3 162/3/3 163/3/3
f 165/1/3 163/1/3 159/1/3
f 165/1/3 164/1/3 163/1/3
f 166/1/3 160/1/3 164/1/3
f 166/1/3 164/1/3 165/1/3
f 167/1/3 165/1/3 159/1/3
f 167/3/3 166/3/3 165/3/3
f 168/1/3 160/1/3 166/1/3
f 168/3/3 166/3/3 167/3/3
f 169/1/3 167/1/3 159/1/3
f 169/1/3 168/1/3 167/1/3
f 170/1/3 160/1/3 168/1/3
f 170/1/3 168/1/3 169/1/3
f 171/1/3 169/1/3 159/1/3
f 171/3/3 170/3/3 169/3/3
f 172/1/3 160/1/3 170/1/3
f 172/3/3 170/3/3 171/3/3
f 173/1/3 171/1/3 159/1/3
f 173/1/3 172/1/3 171/1/3
f 174/1/3 160/1/3 172/1/3
f 174/1/3 172/1/3 173/1/3
f 175/1/3 173/1/3 159/1/3
f 175/3/3 174/3/3 173/3/3
f 176/1/3 160/1/3 174/1/3
f 176/3/3 174/3/3 175/3/3
f 177/1/3 175/1/3 159/1/3
f 177/1/3 176/1/3 175/1/3
f 178/1/3 160/1/3 176/1/3
f 178/1/3 176/1/3 177/1/3
f 179/2/3 158/2/3 157/2/3
f 180/2/3 158/2/3 179/2/3
f 183/2/3 182/2/3 181/2/3
f 184/2/3 182/2/3 183/2/3
f 187/2/3 186/2/3 185/2/3
f 188/2/3 186/2/3 187/2/3
f 191/2/3 190/2/3 189/2/3
f 192/2/3 190/2/3 191/2/3
f 195/2/3 194/2/3 193/2/3
f 196/2/3 194/2/3 195/2/3
f 199/2/3 198/2/3 197/2/3
f 200/2/3 198/2/3 199/2/3
f 203/2/3 202/2/3 201/2/3
f 204/2/3 202/2/3 203/2/3
f 207/2/3 206/2/3 205/2/3
f 208/2/3 206/2/3 207/2/3
f 211/2/3 210/2/3 209/2/3
f 212/2/3 210/2/3 211/2/3
f 215/2/3 214/2/3 213/2/3
f 216/2/3 214/2/3 215/2/3
f 219/2/3 218/2/3 217/2/3
f 220/2/3 218/2/3 219/2/3
f 225/3/3 222/3/3 221/3/3
f 226/1/3 223/1/3 222/1/3
f 226/3/3 222/3/3 225/3/3
f 227/1/3 226/1/3 225/1/3
f 228/1/3 223/1/3 226/1/3
f 228/1/3 226/1/3 227/1/3
f 229/3/3 228/3/3 227/3/3
f 230/1/3 223/1/3 228/1/3
f 230/3/3 228/3/3 229/3/3
f 231/1/3 230/1/3 229/1/3
f 232/1/3 223/1/3 230/1/3
f 232/1/3 230/1/3 231/1/3
f 233/3/3 232/3/3 231/3/3
f 234/1/3 223/1/3 232/1/3
f 234/3/3 232/3/3 233/3/3
f 235/1/3 234/1/3 233/1/3
f 236/1/3 223/1/3 234/1/3
f 236/1/3 234/1/3 235/1/3
f 237/3/3 236/3/3 235/3/3
f 238/1/3 223/1/3 236/1/3
f 238/3/3 236/3/3 237/3/3
f 239/2/3 224/2/3 223/2/3
f 239/1/3 223/1/3 238/1/3
f 240/2/3 224/2/3 239/2/3
f 243/2/3 242/2/3 241/2/3
f 244/2/3 242/2/3 243/2/3
f 247/2/3 246/2/3 245/2/3
f 248/2/3 246/2/3 247/2/3
f 251/2/3 250/2/3 249/2/3
f 252/2/3 250/2/3 251/2/3
f 253/2/4 254/2/4 255/2/4
f 255/2/4 254/2/4 256/2/4
f 257/2/4 258/2/4 259/2/4
f 259/2/4 258/2/4 260/2/4
f 261/2/4 262/2/4 263/2/4
f 263/2/4 262/2/4 264/2/4
f 265/3/4 266/3/4 269/3/4
f 266/1/4 267/1/4 270/1/4
f 269/3/4 266/3/4 270/3/4
f 269/1/4 270/1/4 271/1/4
f 270/1/4 267/1/4 272/1/4
f 271/1/4 270/1/4 272/1/4
f 271/3/4 272/3/4 273/3/4
f 272/1/4 267/1/4 274/1/4
f 273/3/4 272/3/4 274/3/4
f 273/1/4 274/1/4 275/1/4
f 274/1/4 267/1/4 276/1/4
f 275/1/4 274/1/4 276/1/4
f 275/3/4 276/3/4 277/3/4
f 276/1/4 267/1/4 278/1/4
f 277/3/4 276/3/4 278/3/4
f 277/1/4 278/1/4 279/1/4
f 278/1/4 267/1/4 280/1/4
f 279/1/4 278/1/4 280/1/4
f 279/3/4 280/3/4 281/3/4
f 280/1/4 267/1/4 282/1/4
f 281/3/4 280/3/4 282/3/4
f 267/2/4 268/2/4 283/2/4
f 282/1/4 267/1/4 283/1/4
f 283/2/4 268/2/4 284/2/4
f 285/2/4 286/2/4 287/2/4
f 287/2/4 286/2/4 288/2/4
f 289/2/4 290/2/4 291/2/4
f 291/2/4 290/2/4 292/2/4
f 293/2/4 294/2/4 295/2/4
f 295/2/4 294/2/4 296/2/4
f 297/2/4 298/2/4 299/2/4
f 299/2/4 298/2/4 300/2/4
f 301/2/4 302/2/4 303/2/4
f 303/2/4 302/2/4 304/2/4
f 305/2/4 306/2/4 307/2/4
f 307/2/4 306/2/4 308/2/4
f 309/2/4 310/2/4 311/2/4
f 311/2/4 310/2/4 312/2/4
f 313/2/4 314/2/4 315/2/4
f 315/2/4 314/2/4 316/2/4
f 317/2/4 318/2/4 319/2/4
f 319/2/4 318/2/4 320/2/4
f 321/2/4 322/2/4 323/2/4
f 323/2/4 322/2/4 324/2/4
f 327/1/4 328/1/4 329/1/4
f 329/1/4 328/1/4 330/1/4
f 327/1/4 329/1/4 331/1/4
f 329/3/4 330/3/4 331/3/4
f 330/1/4 328/1/4 332/1/4
f 331/3/4 330/3/4 332/3/4
f 327/1/4 331/1/4 333/1/4
f 331/1/4 332/1/4 333/1/4
f 332/1/4 328/1/4 334/1/4
f 333/1/4 332/1/4 334/1/4
f 327/1/4 333/1/4 335/1/4
f 333/3/4 334/3/4 335/3/4
f 334/1/4 328/1/4 336/1/4
f 335/3/4 334/3/4 336/3/4
f 327/1/4 335/1/4 337/1/4
f 335/1/4 336/1/4 337/1/4
f 336/1/4 328/1/4 338/1/4
f 337/1/4 336/1/4 338/1/4
f 327/1/4 337/1/4 339/1/4
f 337/3/4 338/3/4 339/3/4
f 338/1/4 328/1/4 340/1/4
f 339/3/4 338/3/4 340/3/4
f 327/1/4 339/1/4 341/1/4
f 339/1/4 340/1/4 341/1/4
f 340/1/4 328/1/4 342/1/4
f 341/1/4 340/1/4 342/1/4
f 327/1/4 341/1/4 343/1/4
f 341/3/4 342/3/4 343/3/4
f 342/1/4 328/1/4 344/1/4
f 343/3/4 342/3/4 344/3/4
f 327/1/4 343/1/4 345/1/4
f 343/1/4 344/1/4 345/1/4
f 344/1/4 328/1/4 346/1/4
f 345/1/4 344/1/4 346/1/4
f 325/2/4 326/2/4 347/2/4
f 347/2/4 326/2/4 348/2/4
f 349/2/4 350/2/4 351/2/4
f 351/2/4 350/2/4 352/2/4
f 355/1/5 354/1/5 353/1/5
f 356/1/5 354/1/5 355/1/5
f 357/1/5 355/1/5 353/1/5
f 357/4/5 356/4/5 355/4/5
f 358/4/5 356/4/5 357/4/5
f 359/1/5 357/1/5 353/1/5
f 359/1/5 358/1/5 357/1/5
f 360/1/5 358/1/5 359/1/5
f 363/2/5 362/2/5 361/2/5
f 364/2/5 362/2/5 363/2/5
f 365/2/5 362/2/5 364/2/5
f 366/2/5 362/2/5 365/2/5
f 371/2/5 368/2/5 367/2/5
f 371/2/5 370/2/5 369/2/5
f 371/2/5 369/2/5 368/2/5
f 372/2/5 370/2/5 371/2/5
f 377/2/5 374/2/5 373/2/5
f 378/2/5 374/2/5 377/2/5
f 379/2/5 376/2/5 375/2/5
f 380/2/5 376/2/5 379/2/5
f 385/2/5 382/2/5 381/2/5
f 386/2/5 382/2/5 385/2/5
f 387/2/5 384/2/5 383/2/5
f 388/2/5 384/2/5 387/2/5
f 395/2/5 390/2/5 389/2/5
f 396/2/5 390/2/5 395/2/5
f 397/2/5 392/2/5 391/2/5
f 398/2/5 392/2/5 397/2/5
f 399/2/5 394/2/5 393/2/5
f 400/2/5 394/2/5 399/2/5
f 407/2/5 402/2/5 401/2/5
f 408/2/5 402/2/5 407/2/5
f 409/2/5 404/2/5 403/2/5
f 410/2/5 404/2/5 409/2/5
f 411/2/5 406/2/5 405/2/5
f 412/2/5 406/2/5 411/2/5
f 419/2/5 414/2/5 413/2/5
f 420/2/5 414/2/5 419/2/5
f 421/2/5 416/2/5 415/2/5
f 422/2/5 416/2/5 421/2/5
f 423/2/5 418/2/5 417/2/5
f 424/2/5 418/2/5 423/2/5
f 431/2/5 426/2/5 425/2/5
f 432/2/5 426/2/5 431/2/5
f 433/2/5 428/2/5 427/2/5
f 434/2/5 428/2/5 433/2/5
f 435/2/5 430/2/5 429/2/5
f 436/2/5 430/2/5 435/2/5
f 443/2/5 438/2/5 437/2/5
f 444/2/5 438/2/5 443/2/5
f 445/2/5 440/2/5 439/2/5
f 446/2/5 440/2/5 445/2/5
f 447/2/5 442/2/5 441/2/5
f 448/2/5 442/2/5 447/2/5
f 449/1/6 450/1/6 457/1/6
f 455/1/6 456/1/6 457/1/6
f 454/1/6 455/1/6 457/1/6
f 453/1/6 454/1/6 457/1/6
f 452/1/6 453/1/6 457/1/6
f 451/1/6 452/1/6 457/1/6
f 450/1/6 451/1/6 457/1/6
f 449/1/6 457/1/6 458/1/6
f 449/1/6 458/1/6 459/1/6
f 449/1/6 459/1/6 460/1/6
f 449/1/6 460/1/6 461/1/6
f 461/1/6 460/1/6 462/1/6
f 462/1/6 460/1/6 463/1/6
f 463/1/6 460/1/6 464/1/6
f 464/1/6 460/1/6 465/1/6
f 465/1/6 460/1/6 466/1/6
f 466/1/6 460/1/6 467/1/6
f 467/1/6 460/1/6 468/1/6
f 469/2/6 470/2/6 471/2/6
f 471/2/6 470/2/6 472/2/6
f 473/2/6 474/2/6 475/2/6
f 475/2/6 474/2/6 476/2/6
f 477/2/6 478/2/6 479/2/6
f 479/2/6 478/2/6 480/2/6
f 481/2/6 482/2/6 483/2/6
f 483/2/6 482/2/6 484/2/6
f 485/2/6 486/2/6 487/2/6
f 487/2/6 486/2/6 488/2/6
f 489/2/6 490/2/6 491/2/6
f 491/2/6 490/2/6 492/2/6
f 493/2/6 494/2/6 495/2/6
f 495/2/6 494/2/6 496/2/6
f 497/2/6 498/2/6 499/2/6
f 499/2/6 498/2/6 500/2/6
f 501/2/6 502/2/6 503/2/6
f 503/2/6 502/2/6 504/2/6
